<svg width="81" height="22" viewBox="0 0 81 22" fill="none" xmlns="http://www.w3.org/2000/svg">
<path d="M0.544 0.699999V17.5H2.44V0.699999H0.544ZM8.89638 10.396C8.89638 9.82 8.98438 9.292 9.16038 8.812C9.35238 8.332 9.61638 7.924 9.95238 7.588C10.2884 7.236 10.6804 6.972 11.1284 6.796C11.5924 6.604 12.0884 6.508 12.6164 6.508C13.7204 6.508 14.5684 6.844 15.1604 7.516C15.7524 8.188 16.0484 9.1 16.0484 10.252V17.5H17.8964V9.796C17.8964 9.06 17.7844 8.388 17.5604 7.78C17.3524 7.172 17.0404 6.652 16.6244 6.22C16.2244 5.772 15.7284 5.428 15.1364 5.188C14.5604 4.948 13.8964 4.828 13.1444 4.828C12.0724 4.828 11.2004 5.068 10.5284 5.548C9.85638 6.012 9.31238 6.58 8.89638 7.252V5.092H7.04838V17.5H8.89638V10.396ZM24.3334 6.724H28.2694V5.092H24.3334V1.348H22.4854V5.092H20.7574V6.724H22.4854V14.212C22.4854 14.836 22.5734 15.372 22.7494 15.82C22.9254 16.268 23.1654 16.636 23.4694 16.924C23.7894 17.196 24.1654 17.396 24.5974 17.524C25.0294 17.652 25.4934 17.716 25.9894 17.716C26.4374 17.716 26.8374 17.668 27.1894 17.572C27.5574 17.492 27.9014 17.364 28.2214 17.188V15.604C27.9014 15.764 27.5974 15.876 27.3094 15.94C27.0374 16.004 26.7414 16.036 26.4214 16.036C25.7974 16.036 25.2934 15.884 24.9094 15.58C24.5254 15.276 24.3334 14.74 24.3334 13.972V6.724ZM32.293 11.98H42.133C42.149 11.868 42.157 11.764 42.157 11.668C42.157 11.572 42.157 11.484 42.157 11.404C42.157 10.492 42.029 9.636 41.773 8.836C41.517 8.036 41.141 7.34 40.645 6.748C40.149 6.156 39.541 5.692 38.821 5.356C38.101 5.004 37.285 4.828 36.373 4.828C35.509 4.828 34.709 4.996 33.973 5.332C33.253 5.668 32.629 6.132 32.101 6.724C31.573 7.3 31.157 7.988 30.853 8.788C30.565 9.572 30.421 10.412 30.421 11.308C30.421 12.268 30.581 13.148 30.901 13.948C31.237 14.748 31.685 15.436 32.245 16.012C32.805 16.572 33.461 17.012 34.213 17.332C34.965 17.636 35.765 17.788 36.613 17.788C37.797 17.788 38.789 17.58 39.589 17.164C40.389 16.732 41.101 16.164 41.725 15.46L40.573 14.428C40.061 14.956 39.493 15.38 38.869 15.7C38.261 16.02 37.525 16.18 36.661 16.18C36.117 16.18 35.597 16.092 35.101 15.916C34.605 15.724 34.157 15.452 33.757 15.1C33.357 14.732 33.029 14.292 32.773 13.78C32.517 13.252 32.357 12.652 32.293 11.98ZM32.293 10.612C32.357 10.004 32.501 9.444 32.725 8.932C32.949 8.42 33.237 7.98 33.589 7.612C33.941 7.228 34.349 6.932 34.813 6.724C35.277 6.5 35.781 6.388 36.325 6.388C36.949 6.388 37.493 6.508 37.957 6.748C38.437 6.972 38.837 7.276 39.157 7.66C39.493 8.044 39.749 8.492 39.925 9.004C40.117 9.516 40.237 10.052 40.285 10.612H32.293ZM57.2001 15.34V5.092H55.3521V7.324C55.0961 6.988 54.8081 6.668 54.4881 6.364C54.1681 6.06 53.8081 5.796 53.4081 5.572C53.0241 5.348 52.5841 5.172 52.0881 5.044C51.6081 4.9 51.0801 4.828 50.5041 4.828C49.7681 4.828 49.0481 4.964 48.3441 5.236C47.6401 5.508 47.0161 5.9 46.4721 6.412C45.9281 6.908 45.4881 7.524 45.1521 8.26C44.8321 8.98 44.6721 9.796 44.6721 10.708C44.6721 11.62 44.8321 12.436 45.1521 13.156C45.4881 13.876 45.9281 14.492 46.4721 15.004C47.0161 15.5 47.6321 15.884 48.3201 16.156C49.0241 16.412 49.7521 16.54 50.5041 16.54C51.6401 16.54 52.6001 16.284 53.3841 15.772C54.1681 15.26 54.8321 14.644 55.3761 13.924V15.388C55.3761 16.844 54.9681 17.94 54.1521 18.676C53.3361 19.428 52.2401 19.804 50.8641 19.804C49.9681 19.804 49.1281 19.668 48.3441 19.396C47.5601 19.124 46.8081 18.732 46.0881 18.22L45.2481 19.66C46.0801 20.236 46.9681 20.668 47.9121 20.956C48.8561 21.244 49.8481 21.388 50.8881 21.388C51.8481 21.388 52.7121 21.26 53.4801 21.004C54.2641 20.748 54.9281 20.364 55.4721 19.852C56.0321 19.356 56.4561 18.732 56.7441 17.98C57.0481 17.228 57.2001 16.348 57.2001 15.34ZM55.4241 10.684C55.4241 11.324 55.2961 11.908 55.0401 12.436C54.7841 12.948 54.4401 13.388 54.0081 13.756C53.5921 14.124 53.1121 14.412 52.5681 14.62C52.0241 14.812 51.4561 14.908 50.8641 14.908C50.2881 14.908 49.7361 14.812 49.2081 14.62C48.6961 14.412 48.2401 14.124 47.8401 13.756C47.4561 13.372 47.1441 12.924 46.9041 12.412C46.6801 11.884 46.5681 11.3 46.5681 10.66C46.5681 10.02 46.6801 9.444 46.9041 8.932C47.1281 8.404 47.4321 7.956 47.8161 7.588C48.2161 7.22 48.6721 6.94 49.1841 6.748C49.7121 6.556 50.2721 6.46 50.8641 6.46C51.4561 6.46 52.0241 6.564 52.5681 6.772C53.1121 6.964 53.5921 7.244 54.0081 7.612C54.4401 7.98 54.7841 8.428 55.0401 8.956C55.2961 9.468 55.4241 10.044 55.4241 10.684ZM63.1776 12.556C63.1776 11.628 63.3056 10.812 63.5616 10.108C63.8176 9.388 64.1696 8.788 64.6176 8.308C65.0656 7.828 65.5856 7.468 66.1776 7.228C66.7856 6.988 67.4256 6.868 68.0976 6.868H68.2416V4.876C67.6496 4.86 67.0976 4.932 66.5856 5.092C66.0736 5.252 65.6016 5.492 65.1696 5.812C64.7376 6.116 64.3536 6.484 64.0176 6.916C63.6816 7.348 63.4016 7.82 63.1776 8.332V5.092H61.3296V17.5H63.1776V12.556ZM74.9348 6.556C76.1028 6.556 77.0068 6.844 77.6468 7.42C78.3028 7.98 78.6308 8.82 78.6308 9.94V10.372C78.0708 10.212 77.4948 10.084 76.9028 9.988C76.3108 9.892 75.6148 9.844 74.8148 9.844C74.0308 9.844 73.3108 9.932 72.6548 10.108C72.0148 10.284 71.4548 10.54 70.9748 10.876C70.5108 11.212 70.1508 11.636 69.8948 12.148C69.6388 12.644 69.5108 13.22 69.5108 13.876C69.5108 14.532 69.6388 15.1 69.8948 15.58C70.1668 16.06 70.5188 16.468 70.9508 16.804C71.3988 17.124 71.8948 17.364 72.4388 17.524C72.9988 17.684 73.5668 17.764 74.1428 17.764C75.2468 17.764 76.1588 17.548 76.8788 17.116C77.6148 16.684 78.1988 16.188 78.6308 15.628V17.5H80.4068V9.916C80.4068 8.268 79.9508 7.028 79.0388 6.196C78.1268 5.348 76.8228 4.924 75.1268 4.924C74.2148 4.924 73.4068 5.02 72.7028 5.212C71.9988 5.388 71.3028 5.636 70.6148 5.956L71.1668 7.468C71.7428 7.196 72.3268 6.98 72.9188 6.82C73.5268 6.644 74.1988 6.556 74.9348 6.556ZM75.0068 11.212C75.7748 11.212 76.4548 11.268 77.0468 11.38C77.6548 11.492 78.1908 11.612 78.6548 11.74V12.94C78.6548 13.436 78.5428 13.892 78.3188 14.308C78.1108 14.708 77.8148 15.06 77.4308 15.364C77.0628 15.652 76.6228 15.884 76.1108 16.06C75.6148 16.22 75.0788 16.3 74.5028 16.3C74.0868 16.3 73.6868 16.244 73.3028 16.132C72.9348 16.02 72.6068 15.86 72.3188 15.652C72.0308 15.428 71.7988 15.164 71.6228 14.86C71.4628 14.556 71.3828 14.204 71.3828 13.804C71.3828 13.004 71.6948 12.372 72.3188 11.908C72.9428 11.444 73.8388 11.212 75.0068 11.212Z" fill="white"/>
</svg>
