<svg width="36" height="44" viewBox="0 0 36 44" fill="none" xmlns="http://www.w3.org/2000/svg">
<path d="M31.4167 25.8334V33.5001H27.5833V25.8334H31.4167ZM8.41667 25.8334V33.5001H6.5C5.44583 33.5001 4.58333 32.6376 4.58333 31.5834V25.8334H8.41667ZM18 0.916748C8.47417 0.916748 0.75 8.64091 0.75 18.1667V31.5834C0.75 34.7651 3.31833 37.3334 6.5 37.3334H12.25V22.0001H4.58333V18.1667C4.58333 10.7492 10.5825 4.75008 18 4.75008C25.4175 4.75008 31.4167 10.7492 31.4167 18.1667V22.0001H23.75V37.3334H31.4167V39.2501H18V43.0834H29.5C32.6817 43.0834 35.25 40.5151 35.25 37.3334V18.1667C35.25 8.64091 27.5258 0.916748 18 0.916748Z" fill="white"/>
</svg>
