<svg width="27" height="31" viewBox="0 0 27 31" fill="none" xmlns="http://www.w3.org/2000/svg">
<path d="M22.25 21.5084C21.1417 21.5084 20.15 21.9459 19.3917 22.6313L8.99375 16.5793C9.06667 16.2438 9.125 15.9084 9.125 15.5584C9.125 15.2084 9.06667 14.873 8.99375 14.5376L19.275 8.54385C20.0625 9.27302 21.0979 9.7251 22.25 9.7251C24.6708 9.7251 26.625 7.77093 26.625 5.3501C26.625 2.92926 24.6708 0.975098 22.25 0.975098C19.8292 0.975098 17.875 2.92926 17.875 5.3501C17.875 5.7001 17.9333 6.03551 18.0063 6.37093L7.725 12.3647C6.9375 11.6355 5.90208 11.1834 4.75 11.1834C2.32917 11.1834 0.375 13.1376 0.375 15.5584C0.375 17.9793 2.32917 19.9334 4.75 19.9334C5.90208 19.9334 6.9375 19.4813 7.725 18.7522L18.1083 24.8188C18.0354 25.1251 17.9917 25.4459 17.9917 25.7668C17.9917 28.1147 19.9021 30.0251 22.25 30.0251C24.5979 30.0251 26.5083 28.1147 26.5083 25.7668C26.5083 23.4188 24.5979 21.5084 22.25 21.5084Z" fill="black"/>
</svg>
