<svg width="302" height="46" viewBox="0 0 302 46" fill="none" xmlns="http://www.w3.org/2000/svg">
<path d="M12.132 37.432C18.252 37.432 22.32 34.372 22.32 29.224V29.152C22.32 24.436 18.72 22.564 12.96 21.304C9.432 20.548 8.568 19.972 8.568 18.856V18.784C8.568 17.812 9.396 17.164 11.088 17.164C13.356 17.164 15.84 17.956 18.144 19.648L21.636 14.716C18.9 12.52 15.588 11.368 11.268 11.368C5.22 11.368 1.512 14.716 1.512 19.432V19.504C1.512 24.688 5.688 26.164 11.016 27.388C14.472 28.252 15.3 28.756 15.3 29.836V29.908C15.3 31.024 14.292 31.636 12.384 31.636C9.504 31.636 6.768 30.628 4.212 28.612L0.324 33.256C3.492 36.028 7.632 37.432 12.132 37.432ZM25.7164 37H46.1644V31.06H32.6284V27.064H44.7244V21.556H32.6284V17.704H45.9844V11.8H25.7164V37ZM49.7633 37H56.7473V29.8H60.2393C66.4673 29.8 71.0393 26.668 71.0393 20.692V20.62C71.0393 15.04 66.9353 11.8 60.5993 11.8H49.7633V37ZM56.7473 24.328V17.668H60.0593C62.5433 17.668 64.0913 18.784 64.0913 20.944V21.016C64.0913 23.032 62.5433 24.328 60.0953 24.328H56.7473ZM73.9859 37H93.1739V30.88H80.9699V11.8H73.9859V37ZM94.2247 37H101.533L103.333 32.464H113.089L114.889 37H122.377L111.649 11.62H104.917L94.2247 37ZM105.385 27.028L108.229 19.9L111.037 27.028H105.385ZM136.057 37.504C140.701 37.504 144.301 35.848 147.001 33.58V22.276H135.445V27.388H140.377V30.448C139.369 31.132 138.073 31.492 136.345 31.492C132.349 31.492 129.505 28.576 129.505 24.472V24.4C129.505 20.548 132.349 17.524 135.949 17.524C138.505 17.524 140.197 18.352 142.033 19.9L146.137 14.932C143.437 12.628 140.377 11.296 135.913 11.296C128.137 11.296 122.377 17.056 122.377 24.4V24.472C122.377 32.14 128.173 37.504 136.057 37.504Z" fill="white"/>
<path d="M175.544 15.2V32H177.44V15.2H175.544ZM194.72 28.664L184.136 15.2H182.36V32H184.208V18.224L195.056 32H196.568V15.2H194.72V28.664ZM207.681 16.952H213.321V15.2H200.121V16.952H205.761V32H207.681V16.952ZM230.78 32L225.62 25.136C226.276 25.024 226.884 24.832 227.444 24.56C228.004 24.288 228.484 23.952 228.884 23.552C229.3 23.136 229.62 22.656 229.844 22.112C230.068 21.552 230.18 20.92 230.18 20.216C230.18 19.464 230.036 18.784 229.748 18.176C229.46 17.552 229.052 17.024 228.524 16.592C227.996 16.144 227.356 15.8 226.604 15.56C225.868 15.32 225.036 15.2 224.108 15.2H216.884V32H218.78V25.472H223.58L228.452 32H230.78ZM228.26 20.288C228.26 20.832 228.148 21.32 227.924 21.752C227.716 22.184 227.42 22.552 227.036 22.856C226.652 23.144 226.196 23.368 225.668 23.528C225.14 23.688 224.564 23.768 223.94 23.768H218.78V16.952H223.964C225.324 16.952 226.38 17.248 227.132 17.84C227.884 18.416 228.26 19.232 228.26 20.288ZM242.22 15.08H240.444L232.788 32H234.732L236.724 27.56H245.868L247.836 32H249.876L242.22 15.08ZM245.124 25.856H237.468L241.308 17.288L245.124 25.856ZM265.549 28.664L254.965 15.2H253.189V32H255.037V18.224L265.885 32H267.397V15.2H265.549V28.664ZM284.293 15.2H272.149V32H284.413V30.272H274.045V24.392H283.213V22.664H274.045V16.928H284.293V15.2ZM294.588 16.952H300.228V15.2H287.028V16.952H292.668V32H294.588V16.952Z" fill="white"/>
<rect x="160" width="2" height="46" fill="white"/>
</svg>
