<svg width="168" height="22" viewBox="0 0 168 22" fill="none" xmlns="http://www.w3.org/2000/svg">
<path d="M9.584 14.52V14.472C9.584 13.912 9.464 13.44 9.224 13.056C9 12.672 8.696 12.344 8.312 12.072C7.928 11.8 7.496 11.576 7.016 11.4C6.552 11.224 6.08 11.064 5.6 10.92C5.184 10.792 4.784 10.664 4.4 10.536C4.016 10.408 3.672 10.264 3.368 10.104C3.08 9.944 2.848 9.76 2.672 9.552C2.496 9.328 2.408 9.072 2.408 8.784V8.736C2.408 8.224 2.624 7.8 3.056 7.464C3.488 7.112 4.072 6.936 4.808 6.936C5.416 6.936 6.032 7.048 6.656 7.272C7.296 7.48 7.904 7.768 8.48 8.136L9.32 6.744C8.68 6.328 7.968 6 7.184 5.76C6.4 5.504 5.624 5.376 4.856 5.376C4.248 5.376 3.68 5.464 3.152 5.64C2.64 5.8 2.192 6.04 1.808 6.36C1.44 6.664 1.152 7.04 0.944 7.488C0.736 7.92 0.632 8.4 0.632 8.928V8.976C0.632 9.552 0.752 10.032 0.992 10.416C1.248 10.8 1.568 11.12 1.952 11.376C2.352 11.632 2.792 11.848 3.272 12.024C3.768 12.184 4.256 12.336 4.736 12.48C5.136 12.592 5.52 12.712 5.888 12.84C6.272 12.968 6.608 13.12 6.896 13.296C7.184 13.456 7.408 13.648 7.568 13.872C7.744 14.096 7.832 14.36 7.832 14.664V14.712C7.832 15.32 7.592 15.8 7.112 16.152C6.632 16.504 6.016 16.68 5.264 16.68C4.528 16.68 3.792 16.544 3.056 16.272C2.336 16 1.64 15.608 0.968 15.096L0.032 16.416C0.736 16.976 1.544 17.424 2.456 17.76C3.368 18.08 4.272 18.24 5.168 18.24C5.792 18.24 6.368 18.16 6.896 18C7.44 17.824 7.904 17.576 8.288 17.256C8.688 16.936 9 16.552 9.224 16.104C9.464 15.64 9.584 15.112 9.584 14.52ZM14.1211 12.48H23.9611C23.9771 12.368 23.9851 12.264 23.9851 12.168C23.9851 12.072 23.9851 11.984 23.9851 11.904C23.9851 10.992 23.8571 10.136 23.6011 9.336C23.3451 8.536 22.9691 7.84 22.4731 7.248C21.9771 6.656 21.3691 6.192 20.6491 5.856C19.9291 5.504 19.1131 5.328 18.2011 5.328C17.3371 5.328 16.5371 5.496 15.8011 5.832C15.0811 6.168 14.4571 6.632 13.9291 7.224C13.4011 7.8 12.9851 8.488 12.6811 9.288C12.3931 10.072 12.2491 10.912 12.2491 11.808C12.2491 12.768 12.4091 13.648 12.7291 14.448C13.0651 15.248 13.5131 15.936 14.0731 16.512C14.6331 17.072 15.2891 17.512 16.0411 17.832C16.7931 18.136 17.5931 18.288 18.4411 18.288C19.6251 18.288 20.6171 18.08 21.4171 17.664C22.2171 17.232 22.9291 16.664 23.5531 15.96L22.4011 14.928C21.8891 15.456 21.3211 15.88 20.6971 16.2C20.0891 16.52 19.3531 16.68 18.4891 16.68C17.9451 16.68 17.4251 16.592 16.9291 16.416C16.4331 16.224 15.9851 15.952 15.5851 15.6C15.1851 15.232 14.8571 14.792 14.6011 14.28C14.3451 13.752 14.1851 13.152 14.1211 12.48ZM14.1211 11.112C14.1851 10.504 14.3291 9.944 14.5531 9.432C14.7771 8.92 15.0651 8.48 15.4171 8.112C15.7691 7.728 16.1771 7.432 16.6411 7.224C17.1051 7 17.6091 6.888 18.1531 6.888C18.7771 6.888 19.3211 7.008 19.7851 7.248C20.2651 7.472 20.6651 7.776 20.9851 8.16C21.3211 8.544 21.5771 8.992 21.7531 9.504C21.9451 10.016 22.0651 10.552 22.1131 11.112H14.1211ZM39.7483 11.784C39.7483 10.76 39.5803 9.848 39.2443 9.048C38.9083 8.248 38.4603 7.576 37.9003 7.032C37.3403 6.472 36.7003 6.048 35.9803 5.76C35.2763 5.472 34.5563 5.328 33.8203 5.328C33.2443 5.328 32.7163 5.408 32.2363 5.568C31.7723 5.712 31.3483 5.912 30.9643 6.168C30.5803 6.408 30.2283 6.696 29.9083 7.032C29.6043 7.368 29.3243 7.72 29.0683 8.088V5.592H27.2203V21.84H29.0683V15.624C29.3083 15.976 29.5803 16.312 29.8843 16.632C30.2043 16.952 30.5563 17.232 30.9403 17.472C31.3243 17.712 31.7563 17.904 32.2363 18.048C32.7163 18.192 33.2443 18.264 33.8203 18.264C34.5723 18.264 35.3003 18.12 36.0043 17.832C36.7243 17.528 37.3563 17.104 37.9003 16.56C38.4603 16 38.9083 15.32 39.2443 14.52C39.5803 13.72 39.7483 12.808 39.7483 11.784ZM37.8523 11.808C37.8523 12.56 37.7323 13.24 37.4922 13.848C37.2682 14.44 36.9563 14.944 36.5563 15.36C36.1723 15.76 35.7083 16.072 35.1643 16.296C34.6363 16.504 34.0763 16.608 33.4843 16.608C32.9083 16.608 32.3483 16.496 31.8043 16.272C31.2763 16.032 30.7963 15.704 30.3643 15.288C29.9483 14.872 29.6123 14.368 29.3563 13.776C29.1163 13.168 28.9963 12.504 28.9963 11.784C28.9963 11.064 29.1163 10.408 29.3563 9.816C29.6123 9.224 29.9483 8.72 30.3643 8.304C30.7963 7.888 31.2763 7.568 31.8043 7.344C32.3483 7.104 32.9083 6.984 33.4843 6.984C34.0763 6.984 34.6363 7.096 35.1643 7.32C35.6923 7.544 36.1563 7.872 36.5563 8.304C36.9563 8.72 37.2682 9.224 37.4922 9.816C37.7323 10.408 37.8523 11.072 37.8523 11.808ZM45.1738 18V0.48H43.3258V18H45.1738ZM53.9504 7.056C55.1184 7.056 56.0224 7.344 56.6624 7.92C57.3184 8.48 57.6464 9.32 57.6464 10.44V10.872C57.0864 10.712 56.5104 10.584 55.9184 10.488C55.3264 10.392 54.6304 10.344 53.8304 10.344C53.0464 10.344 52.3264 10.432 51.6704 10.608C51.0304 10.784 50.4704 11.04 49.9904 11.376C49.5264 11.712 49.1664 12.136 48.9104 12.648C48.6544 13.144 48.5264 13.72 48.5264 14.376C48.5264 15.032 48.6544 15.6 48.9104 16.08C49.1824 16.56 49.5344 16.968 49.9664 17.304C50.4144 17.624 50.9104 17.864 51.4544 18.024C52.0144 18.184 52.5824 18.264 53.1584 18.264C54.2624 18.264 55.1744 18.048 55.8944 17.616C56.6304 17.184 57.2144 16.688 57.6464 16.128V18H59.4224V10.416C59.4224 8.768 58.9664 7.528 58.0544 6.696C57.1424 5.848 55.8384 5.424 54.1424 5.424C53.2304 5.424 52.4224 5.52 51.7184 5.712C51.0144 5.888 50.3184 6.136 49.6304 6.456L50.1824 7.968C50.7584 7.696 51.3424 7.48 51.9344 7.32C52.5424 7.144 53.2144 7.056 53.9504 7.056ZM54.0224 11.712C54.7904 11.712 55.4704 11.768 56.0624 11.88C56.6704 11.992 57.2064 12.112 57.6704 12.24V13.44C57.6704 13.936 57.5584 14.392 57.3344 14.808C57.1264 15.208 56.8304 15.56 56.4464 15.864C56.0784 16.152 55.6384 16.384 55.1264 16.56C54.6304 16.72 54.0944 16.8 53.5184 16.8C53.1024 16.8 52.7024 16.744 52.3184 16.632C51.9504 16.52 51.6224 16.36 51.3344 16.152C51.0464 15.928 50.8144 15.664 50.6384 15.36C50.4784 15.056 50.3984 14.704 50.3984 14.304C50.3984 13.504 50.7104 12.872 51.3344 12.408C51.9584 11.944 52.8544 11.712 54.0224 11.712ZM75.1689 15.84V5.592H73.3209V7.824C73.0649 7.488 72.7769 7.168 72.4569 6.864C72.1369 6.56 71.7769 6.296 71.3769 6.072C70.9929 5.848 70.5529 5.672 70.0569 5.544C69.5769 5.4 69.0489 5.328 68.4729 5.328C67.7369 5.328 67.0169 5.464 66.3129 5.736C65.6089 6.008 64.9849 6.4 64.4409 6.912C63.8969 7.408 63.4569 8.024 63.1209 8.76C62.8009 9.48 62.6409 10.296 62.6409 11.208C62.6409 12.12 62.8009 12.936 63.1209 13.656C63.4569 14.376 63.8969 14.992 64.4409 15.504C64.9849 16 65.6009 16.384 66.2889 16.656C66.9929 16.912 67.7209 17.04 68.4729 17.04C69.6089 17.04 70.5689 16.784 71.3529 16.272C72.1369 15.76 72.8009 15.144 73.3449 14.424V15.888C73.3449 17.344 72.9369 18.44 72.1209 19.176C71.3049 19.928 70.2089 20.304 68.8329 20.304C67.9369 20.304 67.0969 20.168 66.3129 19.896C65.5289 19.624 64.7769 19.232 64.0569 18.72L63.2169 20.16C64.0489 20.736 64.9369 21.168 65.8809 21.456C66.8249 21.744 67.8169 21.888 68.8569 21.888C69.8169 21.888 70.6809 21.76 71.4489 21.504C72.2329 21.248 72.8969 20.864 73.4409 20.352C74.0009 19.856 74.4249 19.232 74.7129 18.48C75.0169 17.728 75.1689 16.848 75.1689 15.84ZM73.3929 11.184C73.3929 11.824 73.2649 12.408 73.0089 12.936C72.7529 13.448 72.4089 13.888 71.9769 14.256C71.5609 14.624 71.0809 14.912 70.5369 15.12C69.9929 15.312 69.4249 15.408 68.8329 15.408C68.2569 15.408 67.7049 15.312 67.1769 15.12C66.6649 14.912 66.2089 14.624 65.8089 14.256C65.4249 13.872 65.1129 13.424 64.8729 12.912C64.6489 12.384 64.5369 11.8 64.5369 11.16C64.5369 10.52 64.6489 9.944 64.8729 9.432C65.0969 8.904 65.4009 8.456 65.7849 8.088C66.1849 7.72 66.6409 7.44 67.1529 7.248C67.6809 7.056 68.2409 6.96 68.8329 6.96C69.4249 6.96 69.9929 7.064 70.5369 7.272C71.0809 7.464 71.5609 7.744 71.9769 8.112C72.4089 8.48 72.7529 8.928 73.0089 9.456C73.2649 9.968 73.3929 10.544 73.3929 11.184ZM83.7864 7.056C84.9544 7.056 85.8584 7.344 86.4984 7.92C87.1544 8.48 87.4824 9.32 87.4824 10.44V10.872C86.9224 10.712 86.3464 10.584 85.7544 10.488C85.1624 10.392 84.4664 10.344 83.6664 10.344C82.8824 10.344 82.1624 10.432 81.5064 10.608C80.8664 10.784 80.3064 11.04 79.8264 11.376C79.3624 11.712 79.0024 12.136 78.7464 12.648C78.4904 13.144 78.3624 13.72 78.3624 14.376C78.3624 15.032 78.4904 15.6 78.7464 16.08C79.0184 16.56 79.3704 16.968 79.8024 17.304C80.2504 17.624 80.7464 17.864 81.2904 18.024C81.8504 18.184 82.4184 18.264 82.9944 18.264C84.0984 18.264 85.0104 18.048 85.7304 17.616C86.4664 17.184 87.0504 16.688 87.4824 16.128V18H89.2584V10.416C89.2584 8.768 88.8024 7.528 87.8904 6.696C86.9784 5.848 85.6744 5.424 83.9784 5.424C83.0664 5.424 82.2584 5.52 81.5544 5.712C80.8504 5.888 80.1544 6.136 79.4664 6.456L80.0184 7.968C80.5944 7.696 81.1784 7.48 81.7704 7.32C82.3784 7.144 83.0504 7.056 83.7864 7.056ZM83.8584 11.712C84.6264 11.712 85.3064 11.768 85.8984 11.88C86.5064 11.992 87.0424 12.112 87.5064 12.24V13.44C87.5064 13.936 87.3944 14.392 87.1704 14.808C86.9624 15.208 86.6664 15.56 86.2824 15.864C85.9144 16.152 85.4744 16.384 84.9624 16.56C84.4664 16.72 83.9304 16.8 83.3544 16.8C82.9384 16.8 82.5384 16.744 82.1544 16.632C81.7864 16.52 81.4584 16.36 81.1704 16.152C80.8824 15.928 80.6504 15.664 80.4744 15.36C80.3144 15.056 80.2344 14.704 80.2344 14.304C80.2344 13.504 80.5464 12.872 81.1704 12.408C81.7944 11.944 82.6904 11.712 83.8584 11.712ZM95.2128 18V0.48H93.3648V18H95.2128ZM103.99 7.056C105.158 7.056 106.062 7.344 106.702 7.92C107.358 8.48 107.686 9.32 107.686 10.44V10.872C107.126 10.712 106.55 10.584 105.958 10.488C105.366 10.392 104.67 10.344 103.87 10.344C103.086 10.344 102.366 10.432 101.71 10.608C101.07 10.784 100.51 11.04 100.03 11.376C99.5655 11.712 99.2055 12.136 98.9495 12.648C98.6935 13.144 98.5655 13.72 98.5655 14.376C98.5655 15.032 98.6935 15.6 98.9495 16.08C99.2215 16.56 99.5735 16.968 100.006 17.304C100.454 17.624 100.95 17.864 101.494 18.024C102.054 18.184 102.622 18.264 103.198 18.264C104.302 18.264 105.214 18.048 105.934 17.616C106.67 17.184 107.254 16.688 107.686 16.128V18H109.462V10.416C109.462 8.768 109.006 7.528 108.094 6.696C107.182 5.848 105.878 5.424 104.182 5.424C103.27 5.424 102.462 5.52 101.758 5.712C101.054 5.888 100.358 6.136 99.6695 6.456L100.222 7.968C100.798 7.696 101.382 7.48 101.974 7.32C102.582 7.144 103.254 7.056 103.99 7.056ZM104.062 11.712C104.83 11.712 105.51 11.768 106.102 11.88C106.71 11.992 107.246 12.112 107.71 12.24V13.44C107.71 13.936 107.598 14.392 107.374 14.808C107.166 15.208 106.87 15.56 106.486 15.864C106.118 16.152 105.678 16.384 105.166 16.56C104.67 16.72 104.134 16.8 103.558 16.8C103.142 16.8 102.742 16.744 102.358 16.632C101.99 16.52 101.662 16.36 101.374 16.152C101.086 15.928 100.854 15.664 100.678 15.36C100.518 15.056 100.438 14.704 100.438 14.304C100.438 13.504 100.75 12.872 101.374 12.408C101.998 11.944 102.894 11.712 104.062 11.712ZM125.208 15.84V5.592H123.36V7.824C123.104 7.488 122.816 7.168 122.496 6.864C122.176 6.56 121.816 6.296 121.416 6.072C121.032 5.848 120.592 5.672 120.096 5.544C119.616 5.4 119.088 5.328 118.512 5.328C117.776 5.328 117.056 5.464 116.352 5.736C115.648 6.008 115.024 6.4 114.48 6.912C113.936 7.408 113.496 8.024 113.16 8.76C112.84 9.48 112.68 10.296 112.68 11.208C112.68 12.12 112.84 12.936 113.16 13.656C113.496 14.376 113.936 14.992 114.48 15.504C115.024 16 115.64 16.384 116.328 16.656C117.032 16.912 117.76 17.04 118.512 17.04C119.648 17.04 120.608 16.784 121.392 16.272C122.176 15.76 122.84 15.144 123.384 14.424V15.888C123.384 17.344 122.976 18.44 122.16 19.176C121.344 19.928 120.248 20.304 118.872 20.304C117.976 20.304 117.136 20.168 116.352 19.896C115.568 19.624 114.816 19.232 114.096 18.72L113.256 20.16C114.088 20.736 114.976 21.168 115.92 21.456C116.864 21.744 117.856 21.888 118.896 21.888C119.856 21.888 120.72 21.76 121.488 21.504C122.272 21.248 122.936 20.864 123.48 20.352C124.04 19.856 124.464 19.232 124.752 18.48C125.056 17.728 125.208 16.848 125.208 15.84ZM123.432 11.184C123.432 11.824 123.304 12.408 123.048 12.936C122.792 13.448 122.448 13.888 122.016 14.256C121.6 14.624 121.12 14.912 120.576 15.12C120.032 15.312 119.464 15.408 118.872 15.408C118.296 15.408 117.744 15.312 117.216 15.12C116.704 14.912 116.248 14.624 115.848 14.256C115.464 13.872 115.152 13.424 114.912 12.912C114.688 12.384 114.576 11.8 114.576 11.16C114.576 10.52 114.688 9.944 114.912 9.432C115.136 8.904 115.44 8.456 115.824 8.088C116.224 7.72 116.68 7.44 117.192 7.248C117.72 7.056 118.28 6.96 118.872 6.96C119.464 6.96 120.032 7.064 120.576 7.272C121.12 7.464 121.6 7.744 122.016 8.112C122.448 8.48 122.792 8.928 123.048 9.456C123.304 9.968 123.432 10.544 123.432 11.184ZM141.505 11.784C141.505 10.904 141.345 10.072 141.025 9.288C140.705 8.504 140.257 7.824 139.681 7.248C139.105 6.656 138.417 6.192 137.617 5.856C136.833 5.504 135.977 5.328 135.049 5.328C134.105 5.328 133.233 5.504 132.433 5.856C131.649 6.192 130.969 6.656 130.393 7.248C129.817 7.84 129.369 8.536 129.049 9.336C128.729 10.12 128.569 10.952 128.569 11.832C128.569 12.712 128.729 13.544 129.049 14.328C129.369 15.112 129.817 15.8 130.393 16.392C130.969 16.968 131.649 17.432 132.433 17.784C133.217 18.12 134.073 18.288 135.001 18.288C135.929 18.288 136.793 18.12 137.593 17.784C138.393 17.432 139.081 16.96 139.657 16.368C140.233 15.776 140.681 15.088 141.001 14.304C141.337 13.504 141.505 12.664 141.505 11.784ZM139.609 11.832C139.609 12.504 139.497 13.136 139.273 13.728C139.049 14.304 138.737 14.808 138.337 15.24C137.937 15.672 137.457 16.016 136.897 16.272C136.337 16.512 135.721 16.632 135.049 16.632C134.393 16.632 133.785 16.504 133.225 16.248C132.665 15.992 132.177 15.648 131.761 15.216C131.361 14.784 131.041 14.272 130.801 13.68C130.577 13.088 130.465 12.456 130.465 11.784C130.465 11.112 130.577 10.488 130.801 9.912C131.025 9.32 131.329 8.808 131.713 8.376C132.113 7.928 132.593 7.584 133.153 7.344C133.713 7.088 134.329 6.96 135.001 6.96C135.657 6.96 136.265 7.088 136.825 7.344C137.385 7.6 137.873 7.952 138.289 8.4C138.705 8.832 139.025 9.344 139.249 9.936C139.489 10.528 139.609 11.16 139.609 11.832ZM149.341 7.056C150.509 7.056 151.413 7.344 152.053 7.92C152.709 8.48 153.037 9.32 153.037 10.44V10.872C152.477 10.712 151.901 10.584 151.309 10.488C150.717 10.392 150.021 10.344 149.221 10.344C148.437 10.344 147.717 10.432 147.061 10.608C146.421 10.784 145.861 11.04 145.381 11.376C144.917 11.712 144.557 12.136 144.301 12.648C144.045 13.144 143.917 13.72 143.917 14.376C143.917 15.032 144.045 15.6 144.301 16.08C144.573 16.56 144.925 16.968 145.357 17.304C145.805 17.624 146.301 17.864 146.845 18.024C147.405 18.184 147.973 18.264 148.549 18.264C149.653 18.264 150.565 18.048 151.285 17.616C152.021 17.184 152.605 16.688 153.037 16.128V18H154.813V10.416C154.813 8.768 154.357 7.528 153.445 6.696C152.533 5.848 151.229 5.424 149.533 5.424C148.621 5.424 147.813 5.52 147.109 5.712C146.405 5.888 145.709 6.136 145.021 6.456L145.573 7.968C146.149 7.696 146.733 7.48 147.325 7.32C147.933 7.144 148.605 7.056 149.341 7.056ZM149.413 11.712C150.181 11.712 150.861 11.768 151.453 11.88C152.061 11.992 152.597 12.112 153.061 12.24V13.44C153.061 13.936 152.949 14.392 152.725 14.808C152.517 15.208 152.221 15.56 151.837 15.864C151.469 16.152 151.029 16.384 150.517 16.56C150.021 16.72 149.485 16.8 148.909 16.8C148.493 16.8 148.093 16.744 147.709 16.632C147.341 16.52 147.013 16.36 146.725 16.152C146.437 15.928 146.205 15.664 146.029 15.36C145.869 15.056 145.789 14.704 145.789 14.304C145.789 13.504 146.101 12.872 146.725 12.408C147.349 11.944 148.245 11.712 149.413 11.712ZM167.272 14.52V14.472C167.272 13.912 167.152 13.44 166.912 13.056C166.688 12.672 166.384 12.344 166 12.072C165.616 11.8 165.184 11.576 164.704 11.4C164.24 11.224 163.768 11.064 163.288 10.92C162.872 10.792 162.472 10.664 162.088 10.536C161.704 10.408 161.36 10.264 161.056 10.104C160.768 9.944 160.536 9.76 160.36 9.552C160.184 9.328 160.096 9.072 160.096 8.784V8.736C160.096 8.224 160.312 7.8 160.744 7.464C161.176 7.112 161.76 6.936 162.496 6.936C163.104 6.936 163.72 7.048 164.344 7.272C164.984 7.48 165.592 7.768 166.168 8.136L167.008 6.744C166.368 6.328 165.656 6 164.872 5.76C164.088 5.504 163.312 5.376 162.544 5.376C161.936 5.376 161.368 5.464 160.84 5.64C160.328 5.8 159.88 6.04 159.496 6.36C159.128 6.664 158.84 7.04 158.632 7.488C158.424 7.92 158.32 8.4 158.32 8.928V8.976C158.32 9.552 158.44 10.032 158.68 10.416C158.936 10.8 159.256 11.12 159.64 11.376C160.04 11.632 160.48 11.848 160.96 12.024C161.456 12.184 161.944 12.336 162.424 12.48C162.824 12.592 163.207 12.712 163.576 12.84C163.96 12.968 164.296 13.12 164.584 13.296C164.872 13.456 165.096 13.648 165.256 13.872C165.432 14.096 165.52 14.36 165.52 14.664V14.712C165.52 15.32 165.28 15.8 164.8 16.152C164.32 16.504 163.704 16.68 162.952 16.68C162.216 16.68 161.48 16.544 160.744 16.272C160.024 16 159.328 15.608 158.656 15.096L157.72 16.416C158.424 16.976 159.232 17.424 160.144 17.76C161.056 18.08 161.96 18.24 162.855 18.24C163.48 18.24 164.056 18.16 164.584 18C165.128 17.824 165.592 17.576 165.976 17.256C166.376 16.936 166.688 16.552 166.912 16.104C167.152 15.64 167.272 15.112 167.272 14.52Z" fill="white"/>
</svg>
