<svg width="40" height="28" viewBox="0 0 40 28" fill="none" xmlns="http://www.w3.org/2000/svg">
<path d="M14.25 17.3542C9.76504 17.3542 0.833374 19.5967 0.833374 24.0625V27.4167H27.6667V24.0625C27.6667 19.5967 18.735 17.3542 14.25 17.3542ZM5.31837 23.5833C6.92837 22.4717 10.8192 21.1875 14.25 21.1875C17.6809 21.1875 21.5717 22.4717 23.1817 23.5833H5.31837ZM14.25 14C17.9492 14 20.9584 10.9908 20.9584 7.29168C20.9584 3.59251 17.9492 0.583344 14.25 0.583344C10.5509 0.583344 7.54171 3.59251 7.54171 7.29168C7.54171 10.9908 10.5509 14 14.25 14ZM14.25 4.41668C15.8409 4.41668 17.125 5.70084 17.125 7.29168C17.125 8.88251 15.8409 10.1667 14.25 10.1667C12.6592 10.1667 11.375 8.88251 11.375 7.29168C11.375 5.70084 12.6592 4.41668 14.25 4.41668ZM27.7434 17.4692C29.9667 19.0792 31.5 21.2258 31.5 24.0625V27.4167H39.1667V24.0625C39.1667 20.1908 32.4584 17.9867 27.7434 17.4692ZM25.75 14C29.4492 14 32.4584 10.9908 32.4584 7.29168C32.4584 3.59251 29.4492 0.583344 25.75 0.583344C24.715 0.583344 23.7567 0.83251 22.875 1.25418C24.0825 2.96001 24.7917 5.04918 24.7917 7.29168C24.7917 9.53418 24.0825 11.6233 22.875 13.3292C23.7567 13.7508 24.715 14 25.75 14Z" fill="white"/>
</svg>
