<svg width="40" height="32" viewBox="0 0 40 32" fill="none" xmlns="http://www.w3.org/2000/svg">
<path d="M31.5 13.0867V4.50002C31.5 2.39169 29.775 0.666687 27.6667 0.666687H4.66671C2.55837 0.666687 0.833374 2.39169 0.833374 4.50002V27.5C0.833374 29.6084 2.55837 31.3334 4.66671 31.3334H27.6667C29.775 31.3334 31.5 29.6084 31.5 27.5V18.9134L39.1667 26.5417V5.45835L31.5 13.0867ZM27.6667 27.5H4.66671V4.50002H27.6667V27.5Z" fill="white"/>
<path d="M16.1667 16C18.2838 16 20 14.2838 20 12.1667C20 10.0496 18.2838 8.33335 16.1667 8.33335C14.0496 8.33335 12.3334 10.0496 12.3334 12.1667C12.3334 14.2838 14.0496 16 16.1667 16Z" fill="white"/>
<path d="M23.8334 22.5742C23.8334 21.0217 22.9134 19.6417 21.495 19.0284C19.8659 18.3192 18.0642 17.9167 16.1667 17.9167C14.2692 17.9167 12.4675 18.3192 10.8384 19.0284C9.42004 19.6417 8.50004 21.0217 8.50004 22.5742V23.6667H23.8334V22.5742Z" fill="white"/>
</svg>
