<svg width="32" height="42" viewBox="0 0 32 42" fill="none" xmlns="http://www.w3.org/2000/svg">
<path d="M11.5533 23.2808L16 19.9075L20.4275 23.2808L18.7408 17.8183L23.1875 14.2917H17.7441L16 8.90583L14.2558 14.2917H8.81246L13.24 17.8183L11.5533 23.2808ZM31.3333 16.2083C31.3333 7.73667 24.4716 0.875 16 0.875C7.52829 0.875 0.666626 7.73667 0.666626 16.2083C0.666626 20.0992 2.12329 23.6258 4.49996 26.3283V41.125L16 37.2917L27.5 41.125V26.3283C29.8766 23.6258 31.3333 20.0992 31.3333 16.2083ZM16 4.70833C22.3441 4.70833 27.5 9.86417 27.5 16.2083C27.5 22.5525 22.3441 27.7083 16 27.7083C9.65579 27.7083 4.49996 22.5525 4.49996 16.2083C4.49996 9.86417 9.65579 4.70833 16 4.70833ZM16 33.4583L8.33329 35.4133V29.4717C10.595 30.775 13.2016 31.5417 16 31.5417C18.7983 31.5417 21.405 30.775 23.6666 29.4717V35.4133L16 33.4583Z" fill="white"/>
</svg>
