<svg width="40" height="40" viewBox="0 0 40 40" fill="none" xmlns="http://www.w3.org/2000/svg">
<path d="M35.3334 8.5H27.6667V4.66666C27.6667 2.55833 25.9417 0.833328 23.8334 0.833328H16.1667C14.0584 0.833328 12.3334 2.55833 12.3334 4.66666V8.5H4.66671C2.55837 8.5 0.833374 10.225 0.833374 12.3333V35.3333C0.833374 37.4417 2.55837 39.1667 4.66671 39.1667H35.3334C37.4417 39.1667 39.1667 37.4417 39.1667 35.3333V12.3333C39.1667 10.225 37.4417 8.5 35.3334 8.5ZM16.1667 4.66666H23.8334V8.5H16.1667V4.66666ZM35.3334 35.3333H4.66671V12.3333H35.3334V35.3333Z" fill="white"/>
<path d="M21.9167 16.1667H18.0834V21.9167H12.3334V25.75H18.0834V31.5H21.9167V25.75H27.6667V21.9167H21.9167V16.1667Z" fill="white"/>
</svg>
