<svg width="40" height="36" viewBox="0 0 40 36" fill="none" xmlns="http://www.w3.org/2000/svg">
<path d="M39.1667 0.75L35.9659 3.95083L32.7842 0.75L29.5834 3.95083L26.3825 0.75L23.2009 3.95083L20 0.75L16.7992 3.95083L13.6175 0.75L10.4167 3.95083L7.21587 0.75L4.03421 3.95083L0.833374 0.75V31.4167C0.833374 33.525 2.55837 35.25 4.66671 35.25H35.3334C37.4417 35.25 39.1667 33.525 39.1667 31.4167V0.75ZM18.0834 31.4167H4.66671V19.9167H18.0834V31.4167ZM35.3334 31.4167H21.9167V27.5833H35.3334V31.4167ZM35.3334 23.75H21.9167V19.9167H35.3334V23.75ZM35.3334 16.0833H4.66671V10.3333H35.3334V16.0833Z" fill="white"/>
</svg>
